PathFileType	4	(X/Y/Z)	C:/Users/opensim2020/Desktop/walking_exp_matlab/subject01_walking12_straight_01.trc																																																																																																																																		
DataRate	CameraRate	NumFrames	NumMarkers	Units	OrigDataRate	OrigDataStartFrame	OrigNumFrames																																																																																																																														
100	100	7	44	mm	100	667	193																																																																																																																														
Frame#	Time	LFHD			RFHD			LBHD			RBHD			C7			T10			CLAV			STRN			RBAK			LSHO			LUPA			LELB			LFRM			LWRA			LWRB			LFIN			RSHO			RUPA			RELB			RFRM			RWRA			RWRB			RFIN			LASI			RASI			LPSI			RPSI			LTHI			LKNE			LTIB			LANK			LHEE			LTOE			RTHI			RKNE			RTIB			RANK			RHEE			RTOE			*39			*40			*41			*42			*43		
		X1	Y1	Z1	X2	Y2	Z2	X3	Y3	Z3	X4	Y4	Z4	X5	Y5	Z5	X6	Y6	Z6	X7	Y7	Z7	X8	Y8	Z8	X9	Y9	Z9	X10	Y10	Z10	X11	Y11	Z11	X12	Y12	Z12	X13	Y13	Z13	X14	Y14	Z14	X15	Y15	Z15	X16	Y16	Z16	X17	Y17	Z17	X18	Y18	Z18	X19	Y19	Z19	X20	Y20	Z20	X21	Y21	Z21	X22	Y22	Z22	X23	Y23	Z23	X24	Y24	Z24	X25	Y25	Z25	X26	Y26	Z26	X27	Y27	Z27	X28	Y28	Z28	X29	Y29	Z29	X30	Y30	Z30	X31	Y31	Z31	X32	Y32	Z32	X33	Y33	Z33	X34	Y34	Z34	X35	Y35	Z35	X36	Y36	Z36	X37	Y37	Z37	X38	Y38	Z38	X39	Y39	Z39	X40	Y40	Z40	X41	Y41	Z41	X42	Y42	Z42	X43	Y43	Z43	X44	Y44	Z44
																																																																																																																																					
49	0.48	-576.98267	1665.4043	-1088.91797	-563.84064	1674.35669	-976.56366	-687.96143	1608.90161	-1079.54529	-676.76227	1616.68311	-960.04279	-711.04321	1426.69421	-1029.67883	-758.9198	1136.37732	-1011.01489	-570.21851	1352.70325	-1029.5929	-534.19104	1195.33215	-1027.33447	-770.83258	1239.0437	-939.57446	-635.61273	1379.44641	-1190.12671	-689.12683	1192.81604	-1259.50208	-717.26221	1045.80298	-1242.70557	-701.56866	934.85669	-1269.21387	-637.62537	809.15369	-1266.74915	-697.64722	812.23102	-1273.81506	-665.98212	734.45581	-1289.68005	-627.29816	1389.33704	-878.40979	-658.90674	1194.48633	-761.38531	-639.75922	1068.79321	-749.33362	-575.97211	962.72778	-727.41589	-471.30112	874.07245	-765.10657	-505.50781	863.28412	-718.74799	-445.57413	804.21234	-725.84174	-589.8114	928.18951	-1115.40051	-605.47321	916.91998	-898.29407	-778.70428	941.09045	-1078.5343	-788.11945	943.74548	-934.66479	-530.83704	618.30115	-1191.6825	-497.93262	489.17609	-1173.0249	-516.63171	304.72903	-1191.91333	-499.46652	80.93151	-1152.99536	-538.55292	42.07026	-1099.22485	-353.44305	66.4958	-1155.9657	-717.84509	592.7041	-858.44934	-738.62549	435.52496	-888.90259	-816.50958	277.93378	-887.09985	-872.62115	80.31772	-938.30579	-927.008	47.38936	-988.44025	-738.21918	31.59978	-936.83466	-579.08087	1706.16443	-999.22711	1973.06213	1023.97217	-3102.29419	2013.24512	1022.18744	-3138.2583	NaN	NaN	NaN	NaN	NaN	NaN
50	0.49	-567.49707	1664.15295	-1090.52869	-553.9483	1673.81885	-977.70026	-678.50146	1607.7605	-1081.32214	-667.08807	1615.65466	-961.64679	-701.66058	1425.94714	-1031.28198	-749.83203	1135.52148	-1012.50378	-560.78802	1351.61853	-1031.21997	-524.92065	1194.15686	-1028.29919	-761.62427	1238.57141	-940.68298	-626.02399	1378.21765	-1191.59998	-680.31952	1191.70227	-1260.73645	-709.24432	1044.92139	-1243.72363	-694.32715	933.87695	-1269.95801	-631.38434	807.62585	-1267.09619	-691.27405	811.15765	-1274.13794	-660.28571	733.20154	-1289.90405	-617.7597	1388.70813	-879.92029	-648.76184	1194.28735	-762.30658	-629.51819	1068.55457	-749.80267	-564.71014	963.06458	-727.90869	-458.95883	875.65277	-765.43237	-493.56622	864.39886	-719.34857	-432.4032	806.27869	-726.22675	-579.53265	926.93781	-1115.64197	-596.4881	916.49561	-898.63092	-768.7337	939.73907	-1080.03503	-778.99542	943.19177	-936.27814	-524.48999	615.36737	-1193.28149	-489.95007	487.44247	-1174.01099	-501.40567	302.99664	-1193.48792	-474.71747	79.77147	-1155.54468	-513.00421	39.25404	-1102.58252	-328.10733	71.27877	-1156.6665	-711.70599	593.12793	-858.46887	-734.69263	436.01877	-888.89716	-813.59222	279.03305	-887.17114	-871.90436	81.65572	-938.42078	-926.72968	49.87931	-988.60535	-738.08484	31.48907	-936.67542	-569.5285	1705.0968	-1000.93225	1973.22534	1024.14526	-3101.8501	2013.16516	1022.1925	-3138.19556	NaN	NaN	NaN	NaN	NaN	NaN
51	0.5	-557.84454	1663.01392	-1092.22021	-544.27222	1672.71167	-979.52875	-668.82806	1606.62732	-1083.04907	-657.42426	1614.60474	-963.27222	-692.17017	1424.89063	-1032.9425	-740.50116	1134.56824	-1014.17615	-551.40588	1350.43481	-1032.38232	-515.59973	1193.05786	-1029.36877	-752.48383	1237.99097	-942.04608	-616.30273	1377.05701	-1193.24817	-671.37213	1190.67383	-1262.15369	-700.98761	1044.05432	-1244.89136	-686.84082	932.90582	-1270.83752	-624.758	806.22296	-1267.57568	-684.68945	810.18359	-1274.89368	-654.13507	731.90601	-1290.29614	-608.26221	1387.93066	-881.52295	-638.68201	1194.12244	-763.35199	-619.38989	1068.33801	-750.40009	-553.79163	963.48785	-728.51123	-447.03177	877.05933	-765.95941	-481.05685	865.48199	-719.82025	-419.62738	808.05591	-726.68469	-569.08319	925.60791	-1115.92639	-587.44141	916.01862	-899.05359	-758.59753	938.31934	-1081.60205	-769.62109	942.67023	-937.91675	-517.79901	612.39728	-1194.79541	-481.77094	485.7243	-1175.30493	-486.77655	301.51144	-1195.3595	-451.95599	79.10118	-1157.50891	-489.32443	37.25426	-1105.0387	-304.99597	75.43833	-1157.45691	-705.51111	593.49341	-858.68225	-729.50519	436.26248	-888.61206	-810.91101	280.29971	-887.20459	-871.10291	83.43818	-938.34985	-925.87042	51.94795	-988.74066	-737.97455	31.40414	-936.48151	-559.87701	1703.73218	-1002.97583	1973.0896	1024.12463	-3102.16162	2013.07715	1022.09442	-3138.41016	NaN	NaN	NaN	NaN	NaN	NaN
52	0.51	-548.11414	1661.88696	-1094.03467	-535.34308	1671.30933	-981.91974	-659.08606	1605.51013	-1084.88879	-647.73138	1613.53528	-965.12286	-682.52148	1423.92688	-1034.80835	-731.10565	1133.58899	-1015.96448	-541.73816	1349.41724	-1034.36768	-506.08749	1192.0177	-1030.55151	-743.31653	1237.37354	-943.63354	-606.39191	1375.87512	-1194.93298	-662.19952	1189.62891	-1263.70972	-692.53192	1043.22961	-1246.20435	-678.87775	931.80896	-1271.79871	-617.68054	804.86639	-1268.11218	-677.57269	809.1955	-1275.70483	-647.54315	730.69904	-1290.87024	-598.92004	1387.13904	-883.40686	-628.76282	1193.99194	-764.5752	-609.43732	1068.11389	-751.16071	-542.82196	963.70313	-729.19348	-435.40515	878.354	-766.59656	-469.3634	866.44049	-720.49127	-407.47931	809.73822	-727.18689	-558.46033	924.2301	-1116.1969	-578.10254	915.59729	-899.44891	-748.29559	936.95081	-1083.2323	-760.10229	942.10272	-939.63672	-509.97452	609.91553	-1196.84497	-473.3306	484.24692	-1177.00244	-472.80338	300.20239	-1197.31311	-431.36761	78.50454	-1158.91699	-467.52274	35.69249	-1106.5542	-284.17795	79.36548	-1158.36853	-698.62543	593.77667	-858.76172	-724.32025	436.26154	-888.28979	-807.828	281.73846	-887.19507	-870.35205	85.61545	-938.10004	-925.78064	55.18075	-988.57977	-737.7663	31.42066	-936.2738	-550.13745	1702.65039	-1004.7442	1972.93201	1024.09033	-3102.76929	2013.19373	1022.29352	-3138.31055	NaN	NaN	NaN	NaN	NaN	NaN
53	0.52	-538.29761	1660.81177	-1095.95837	-524.83777	1670.77588	-983.13281	-649.22113	1604.42749	-1086.78137	-637.99969	1612.52197	-967.07813	-672.91803	1422.93237	-1036.89111	-721.46143	1132.56763	-1017.85071	-532.24811	1348.34766	-1035.59583	-496.47815	1191.05115	-1031.78394	-734.02185	1236.71729	-945.48389	-596.35516	1374.6803	-1196.72375	-652.84076	1188.5863	-1265.4071	-683.7157	1042.36658	-1247.68164	-670.75421	930.80432	-1273.01062	-610.28973	803.51086	-1268.78857	-670.10779	808.21851	-1276.58948	-640.4826	729.47192	-1291.45508	-589.7019	1386.19019	-885.41522	-618.93402	1193.80688	-765.94336	-599.70544	1067.88025	-752.11523	-532.25336	963.92523	-730.00159	-424.30252	879.45099	-767.51617	-457.94122	867.34576	-721.12341	-395.41672	811.37933	-727.82776	-547.75806	922.86292	-1116.58459	-568.77246	915.13165	-899.80432	-737.82147	935.65833	-1084.97205	-750.59033	941.62897	-941.41272	-501.45074	607.94812	-1198.72144	-464.60165	482.73456	-1178.86426	-459.66479	298.94733	-1199.21289	-413.08902	78.47423	-1160.05542	-448.25751	34.78109	-1107.52332	-265.73291	82.28732	-1159.16199	-691.56598	594.0564	-859.00458	-718.08221	436.70685	-888.211	-804.06079	283.03482	-887.16339	-869.23108	87.09934	-937.92749	-924.66101	57.62004	-988.5238	-737.54926	31.38405	-936.01611	-540.34442	1701.61035	-1006.67932	1972.87451	1024.10803	-3102.65405	NaN	NaN	NaN	NaN	NaN	NaN	NaN	NaN	NaN
54	0.53	-528.42181	1659.79761	-1097.87622	-515.53864	1669.14221	-985.69092	-639.35394	1603.44287	-1088.82471	-628.27185	1611.57288	-969.14093	-663.46509	1421.96326	-1039.19067	-711.64246	1131.52307	-1019.8808	-522.48608	1347.41943	-1037.76355	-486.76865	1190.16309	-1033.13953	-724.6618	1235.92358	-947.61298	-586.16833	1373.51331	-1198.75537	-643.22632	1187.54199	-1267.29944	-674.81635	1041.44202	-1249.32275	-662.2417	929.88123	-1274.42261	-602.50281	802.20111	-1269.61877	-662.22754	807.2027	-1277.69019	-633.01904	728.27075	-1292.27466	-580.15967	1385.66687	-887.41815	-609.27618	1193.6366	-767.48547	-590.16345	1067.65112	-753.16418	-522.04236	964.21301	-730.88379	-413.24869	880.49744	-768.09943	-446.98251	868.16364	-721.89679	-383.9809	812.62634	-728.50079	-537.08636	921.52161	-1116.95422	-559.17255	914.6485	-900.23077	-727.34583	934.45361	-1086.77197	-740.70795	941.00958	-943.38977	-491.71317	606.80243	-1200.44092	-455.57428	481.27914	-1180.56885	-447.47461	297.75308	-1200.86902	-397.16507	77.83344	-1161.11267	-431.4549	34.0436	-1108.56982	-249.66479	84.23428	-1160.07056	-683.54022	594.08832	-859.25092	-711.81793	436.50427	-888.07025	-800.03943	284.47049	-887.00543	-868.47119	89.61391	-937.45654	-923.96381	60.93531	-988.05023	-737.3653	31.21156	-935.76263	-530.7785	1700.70471	-1008.72913	1973.10999	1024.00134	-3102.18237	NaN	NaN	NaN	NaN	NaN	NaN	NaN	NaN	NaN
55	0.54	-518.28076	1658.91382	-1100.03503	-505.35959	1668.53552	-987.41516	-629.41882	1602.54578	-1090.99463	-618.55615	1610.74011	-971.27863	-653.22327	1420.73938	-1041.56506	-701.75391	1130.46057	-1021.97571	-512.74054	1346.46497	-1039.27112	-476.87573	1189.33228	-1034.5238	-715.15839	1235.05676	-950.07001	-575.86108	1372.354	-1200.78235	-633.3418	1186.53027	-1269.27319	-665.47937	1040.6665	-1251.08508	-653.40955	928.8374	-1275.77747	-594.30261	800.96503	-1270.55261	-654.01013	806.26324	-1278.88538	-625.12311	727.12665	-1293.14722	-571.01678	1384.94348	-889.5351	-599.80438	1193.41235	-769.22498	-580.88293	1067.40918	-754.37665	-511.9845	964.30804	-731.95392	-402.72937	881.31567	-768.93817	-436.68457	868.93225	-722.81445	-373.00232	813.8053	-729.25739	-526.40552	920.34735	-1117.53577	-549.13812	914.14697	-900.92249	-716.71136	933.38348	-1088.56824	-730.62842	940.33655	-945.37396	-480.96997	606.21606	-1201.75879	-446.11032	479.92978	-1181.86682	-436.29785	296.71918	-1202.24841	-383.48621	77.69027	-1162.37683	-417.42746	33.32395	-1109.6167	-235.82796	85.18926	-1161.0188	-675.36835	594.01691	-859.61139	-704.52277	436.46286	-888.01343	-795.05444	285.95557	-886.85352	-866.8761	91.77982	-936.97644	-922.94647	64.13694	-987.39911	-737.14691	31.14358	-935.56354	-520.74481	1699.72437	-1010.73431	1972.89893	1024.76489	-3102.44751	2013.14929	1022.26721	-3138.41626	NaN	NaN	NaN	NaN	NaN	NaN
